<?xml version="1.0" encoding="UTF-8" standalone="no"?><!DOCTYPE svg PUBLIC "-//W3C//DTD SVG 1.1//EN" "http://www.w3.org/Graphics/SVG/1.1/DTD/svg11.dtd"><svg width="100%" height="100%" viewBox="0 0 180 180" version="1.1" xmlns="http://www.w3.org/2000/svg" xmlns:xlink="http://www.w3.org/1999/xlink" xml:space="preserve" xmlns:serif="http://www.serif.com/" style="fill-rule:evenodd;clip-rule:evenodd;stroke-linejoin:round;stroke-miterlimit:2;"><rect id="Artboard3" x="0" y="0" width="180" height="180" style="fill:none;"/><g><path d="M136.432,102.649c0.693,1.31 1.071,2.786 1.071,4.313c-0,3.086 -1.545,5.968 -4.115,7.678l-36.893,24.541c-4.236,2.817 -9.749,2.817 -13.984,-0l-36.894,-24.541c-2.57,-1.71 -4.114,-4.592 -4.114,-7.678c-0,-1.527 0.378,-3.003 1.07,-4.313c0.708,1.338 1.745,2.502 3.044,3.366l36.894,24.541c4.235,2.817 9.748,2.817 13.984,-0l36.893,-24.541c1.299,-0.864 2.336,-2.028 3.044,-3.366Z" style="fill:#fff;"/><path d="M136.432,85.399c0.693,1.309 1.071,2.786 1.071,4.312c-0,3.087 -1.545,5.969 -4.115,7.679l-36.893,24.54c-4.236,2.818 -9.749,2.818 -13.984,0l-36.894,-24.54c-2.57,-1.71 -4.114,-4.592 -4.114,-7.679c-0,-1.526 0.378,-3.003 1.07,-4.312c0.708,1.338 1.745,2.501 3.044,3.366l36.814,24.487c4.284,2.85 9.86,2.85 14.144,0l36.813,-24.487c1.299,-0.865 2.336,-2.028 3.044,-3.366Z" style="fill:#fff;"/><path d="M81.34,41.021c4.945,-3.289 11.381,-3.289 16.326,0l35.722,23.762c2.57,1.709 4.115,4.591 4.115,7.678c-0,3.087 -1.545,5.969 -4.115,7.678l-35.722,23.762c-4.945,3.289 -11.381,3.289 -16.326,0l-35.723,-23.762c-2.57,-1.709 -4.114,-4.591 -4.114,-7.678c-0,-3.087 1.544,-5.969 4.114,-7.678l35.723,-23.762Zm10.088,23.364l-0.429,0.334l-14.884,10.013c-2.456,1.652 -2.717,4.103 -0.725,5.421c2.038,1.313 5.742,1.078 8.181,-0.563l14.912,-10.031l0.498,-0.29c0.943,-0.472 1.862,-0.534 2.03,-0.546c0.193,-0.013 1.432,-0.098 2.36,0.502l0.001,0c1.191,0.769 1.036,2.26 -0.407,3.231l-14.929,10.043c-2.471,1.662 -2.725,4.133 -0.702,5.454c2.042,1.333 5.776,1.102 8.231,-0.549l14.956,-10.062c6.378,-4.29 7.139,-10.661 1.766,-14.114l-0,-0c-3.353,-2.155 -7.722,-2.221 -8.419,-2.231c-0.035,-0.522 -0.223,-3.325 -3.572,-5.477l-0.001,-0c-2.057,-1.323 -5.612,-2.491 -10.272,-2.169c-6.221,0.431 -10.216,3.119 -10.984,3.635l-14.839,9.982c-2.456,1.653 -2.712,4.107 -0.706,5.417c2.026,1.323 5.734,1.091 8.174,-0.551l14.867,-10.001c1.093,-0.735 2.308,-0.819 2.52,-0.833c0.192,-0.013 1.427,-0.098 2.352,0.499l0,0c1.068,0.69 1.038,1.966 0.021,2.886Z" style="fill:#fff;"/></g><path d="M92.206,29.206l-9.545,6.35l-0.017,-0.012l9.562,-6.338Z" style="fill:#fff;"/></svg>