<?xml version="1.0" encoding="UTF-8" standalone="no"?><!DOCTYPE svg PUBLIC "-//W3C//DTD SVG 1.1//EN" "http://www.w3.org/Graphics/SVG/1.1/DTD/svg11.dtd"><svg width="100%" height="100%" viewBox="0 0 167 171" version="1.1" xmlns="http://www.w3.org/2000/svg" xmlns:xlink="http://www.w3.org/1999/xlink" xml:space="preserve" xmlns:serif="http://www.serif.com/" style="fill-rule:evenodd;clip-rule:evenodd;stroke-linejoin:round;stroke-miterlimit:2;"><rect id="Artboard3" x="-0" y="0" width="166.728" height="170.587" style="fill:none;"/><path d="M154.238,104.57c1.054,1.992 1.628,4.237 1.628,6.559c0,4.694 -2.348,9.077 -6.257,11.677l-56.109,37.322c-6.441,4.285 -14.825,4.285 -21.267,0l-56.109,-37.322c-3.908,-2.6 -6.257,-6.983 -6.257,-11.677c-0,-2.322 0.574,-4.567 1.628,-6.559c1.077,2.035 2.654,3.805 4.629,5.119l56.109,37.322c6.442,4.285 14.826,4.285 21.267,-0l56.109,-37.322c1.975,-1.314 3.552,-3.084 4.629,-5.119Z"/><path d="M154.238,78.336c1.054,1.991 1.628,4.237 1.628,6.558c0,4.695 -2.348,9.078 -6.257,11.677l-56.109,37.323c-6.441,4.284 -14.825,4.284 -21.267,-0l-56.109,-37.323c-3.908,-2.599 -6.257,-6.982 -6.257,-11.677c-0,-2.321 0.574,-4.567 1.628,-6.558c1.077,2.035 2.654,3.804 4.629,5.118l55.987,37.241c6.516,4.334 14.996,4.334 21.511,0l55.987,-37.241c1.975,-1.314 3.552,-3.083 4.629,-5.118Z"/><path d="M70.452,10.845c7.52,-5.003 17.309,-5.003 24.829,-0l54.328,36.137c3.909,2.6 6.257,6.983 6.257,11.678c0,4.694 -2.348,9.077 -6.257,11.677l-54.328,36.137c-7.52,5.003 -17.309,5.003 -24.829,0l-54.328,-36.137c-3.908,-2.6 -6.257,-6.983 -6.257,-11.677c-0,-4.695 2.349,-9.078 6.257,-11.678l54.328,-36.137Zm15.343,35.532l-0.653,0.509l-22.636,15.227c-3.734,2.512 -4.132,6.24 -1.102,8.245c3.098,1.997 8.733,1.638 12.442,-0.857l22.678,-15.256l0.757,-0.44c1.435,-0.717 2.833,-0.813 3.088,-0.83c0.293,-0.02 2.177,-0.149 3.589,0.763l0.001,0c1.811,1.17 1.576,3.437 -0.619,4.914l-22.704,15.273c-3.758,2.528 -4.145,6.286 -1.068,8.295c3.105,2.028 8.784,1.676 12.518,-0.835l22.746,-15.302c9.7,-6.525 10.857,-16.213 2.686,-21.466l-0.001,-0c-5.098,-3.277 -11.744,-3.377 -12.804,-3.393c-0.053,-0.794 -0.339,-5.055 -5.432,-8.329l-0.001,-0c-3.129,-2.012 -8.535,-3.789 -15.622,-3.298c-9.461,0.655 -15.537,4.742 -16.705,5.528l-22.568,15.181c-3.735,2.513 -4.124,6.245 -1.073,8.238c3.08,2.011 8.72,1.659 12.431,-0.838l22.61,-15.21c1.663,-1.118 3.51,-1.245 3.832,-1.267c0.292,-0.02 2.171,-0.149 3.577,0.759l0.001,0.001c1.624,1.049 1.578,2.989 0.032,4.388Z"/><path d="M85.57,24.5l-9.545,6.349l-0.018,-0.011l9.563,-6.338Z" style="fill:#fff;"/></svg>